<svg width="500" height="500" viewBox="0 0 500 500" fill="none" xmlns="http://www.w3.org/2000/svg">
<rect width="500" height="500" fill="black"/>
<path d="M85.8 181.9H125.7C126.3 198.4 133.2 202 162.9 201.7C189.9 201.7 195.6 197.8 195.6 181C195.6 163.9 188.7 158.8 156.9 151.3C99.9 137.8 87.3 126.4 87.3 87.4C87.3 41.2 100.8 31 161.7 31C220.5 31 233.1 40.3 233.4 82.3H193.2C193.2 71.5 187.8 69.1 163.5 69.1C135 69.1 128.4 72.4 128.4 87.7C128.4 100.6 135.9 105.4 169.5 113.5C224.7 126.4 236.7 138.7 236.7 181C236.7 230.2 223.2 241 160.5 241C97.2 241 83.7 230.2 85.8 181.9Z" fill="white"/>
<path d="M285.483 238V199.9H320.583V72.4H287.583V34H394.983V72.4H361.983V199.9H396.783V238H285.483Z" fill="white"/>
<path d="M84 466V262H134.4L160.8 355.3H161.7L188.1 262H238.5V466H199.2V370.6L202.8 312.1H201.9L178.2 396.7H144.6L120.9 312.1H120L123.6 370.6V466H84Z" fill="white"/>
<path d="M265.683 409.9H305.583C306.183 426.4 313.083 430 342.783 429.7C369.783 429.7 375.483 425.8 375.483 409C375.483 391.9 368.583 386.8 336.783 379.3C279.783 365.8 267.183 354.4 267.183 315.4C267.183 269.2 280.683 259 341.583 259C400.383 259 412.983 268.3 413.283 310.3H373.083C373.083 299.5 367.683 297.1 343.383 297.1C314.883 297.1 308.283 300.4 308.283 315.7C308.283 328.6 315.783 333.4 349.383 341.5C404.583 354.4 416.583 366.7 416.583 409C416.583 458.2 403.083 469 340.383 469C277.083 469 263.583 458.2 265.683 409.9Z" fill="white"/>
</svg>
